<?xml version="1.0" encoding="utf-8"?>
<!-- Generator: Adobe Illustrator 19.2.0, SVG Export Plug-In . SVG Version: 6.00 Build 0)  -->
<svg version="1.1" id="Layer_1" xmlns="http://www.w3.org/2000/svg" xmlns:xlink="http://www.w3.org/1999/xlink" x="0px" y="0px"
	 viewBox="0 0 2040.5 1178.5" style="enable-background:new 0 0 2040.5 1178.5;" xml:space="preserve">
<style type="text/css">
	.st0{fill:#FDFCEC;}
	.st1{fill:#E5EDF0;}
	.st2{fill:none;stroke:#CBC9BC;stroke-linejoin:round;}
	.st3{display:none;}
	.st4{display:inline;fill:#939598;}
	.st5{font-family:'HelveticaNeue-Bold';}
	.st6{font-size:5.1197px;}
	.st7{display:inline;fill:#A8AAAD;}
	.st8{display:inline;fill:none;stroke:#EC2227;stroke-width:3;stroke-miterlimit:10;}
	.st9{display:inline;fill:#405B54;}
	.st10{display:inline;fill:none;stroke:#010101;stroke-width:5;stroke-miterlimit:10;}
</style>
<g>
	<polygon class="st0" points="414.5,-43.2 412.8,-46.1 415,-46.5 	"/>
	<polygon class="st0" points="397.8,-42.2 396.2,-43.2 396.5,-45.3 398.7,-45.8 398.9,-42.9 	"/>
	<polygon class="st0" points="539.6,-40.8 539.1,-40.9 540.5,-43.5 541,-41.4 	"/>
	<polygon class="st0" points="404.3,-38.9 403.8,-41.1 406.3,-42.4 406.2,-40.6 	"/>
	<polygon class="st0" points="411,-37.8 408.8,-37.7 409.6,-40.2 411,-39.7 	"/>
	<polygon class="st0" points="418.3,-36.5 417.2,-39 419.1,-39.9 419.2,-37 	"/>
	<polygon class="st0" points="350,-38.4 350.7,-36.4 349.5,-35.8 	"/>
	<polygon class="st0" points="332,-34.1 329.8,-35 330.7,-36.5 332.1,-35.9 	"/>
	<polygon class="st0" points="426.1,-27.8 425,-29.8 426.6,-31.7 427,-29.4 	"/>
	<polygon class="st0" points="356.1,-25.9 351.6,-25.8 351.5,-26.4 355.3,-29 357.3,-28.5 	"/>
	<polygon class="st0" points="429.5,-25.3 429,-25.2 429.3,-27.9 430.9,-27.8 430.9,-25.7 	"/>
	<polygon class="st0" points="363.6,-14.9 360.6,-15.3 360.4,-16.4 366.7,-17.5 367.6,-15.9 	"/>
	<polygon class="st0" points="523.8,-11.7 521.5,-13.7 523.6,-14.5 524.8,-13.2 	"/>
	<polygon class="st0" points="383.2,-11.1 385.1,-16.4 387.5,-16.5 387.5,-14.8 	"/>
	<polygon class="st0" points="528.8,-10.7 527.7,-12.3 529.8,-13.1 529.8,-11.2 	"/>
	<polygon class="st0" points="516.7,-7.4 516.6,-8.9 518.4,-10.6 518.8,-8.6 	"/>
	<polygon class="st0" points="520.9,-4.3 518.2,-4.9 518.9,-6.1 521.4,-6.5 	"/>
	<polygon class="st0" points="431.4,-3.5 430.6,-4.8 432.8,-8.5 435.7,-9.3 436.2,-5.7 	"/>
	<polygon class="st0" points="558.6,-2.6 557.1,-5 557.2,-7 558.8,-7.6 560.2,-6.3 	"/>
	<polygon class="st0" points="518.5,17.3 516.6,16.2 517.6,15 519.4,16.5 	"/>
	<polygon class="st0" points="465.9,22.8 463.7,21.5 463.5,20.6 467.5,19.3 467.4,21.1 	"/>
	<polygon class="st0" points="379.8,42.5 376.4,41.7 378.2,39.8 381.4,38.4 383.3,39.9 	"/>
	<polygon class="st0" points="444.9,44.5 442.8,44.5 444.3,41.8 	"/>
	<polygon class="st0" points="467,45.6 465.3,43.8 467.2,43 468.2,44.3 	"/>
	<polygon class="st0" points="476.1,51.1 474.1,49.7 476.5,46.7 477.5,48.3 477.2,50.4 	"/>
	<polygon class="st0" points="395.2,89.3 392.8,88.8 392.7,88.2 394.9,87.1 	"/>
	<polygon class="st0" points="438.2,90.4 437.8,89.1 439.4,86.7 447,84 446.9,86.3 441.5,89.5 	"/>
	<polygon class="st0" points="456.8,91.8 460.4,90.4 461.4,93 459.8,94.4 455.9,93.9 	"/>
	<polygon class="st0" points="444.5,101.6 442.5,101.1 442.2,99.3 444.2,98.9 	"/>
	<polygon class="st0" points="424.3,104 422.5,102.5 423,98 428.6,93.5 433.2,91.4 434.8,91.9 435,94.2 434.2,95 430.7,94.9 
		425.6,99.5 426.1,103.5 	"/>
	<polygon class="st0" points="464.9,111.8 458.9,109.9 457.8,107.5 464.1,107 	"/>
	<polygon class="st0" points="417.5,112.2 417.2,110.1 419.6,109.2 421.5,106.4 423.5,107.6 423.5,110.8 	"/>
	<polygon class="st0" points="391.3,113.2 388.7,112.9 391.1,111.2 	"/>
	<polygon class="st0" points="456.5,117.3 449.9,114.9 450.1,113.1 453.8,113.3 456.6,115.9 	"/>
	<polygon class="st0" points="480.5,118.4 476.4,116.5 476.3,115.1 478.5,114.7 	"/>
	<polygon class="st0" points="443.7,124.3 443.2,122.3 446.2,119.2 448.5,121 446.4,121.2 	"/>
	<polygon class="st0" points="411.8,124.5 409.9,123.3 410.3,121.7 412.8,121.4 413.1,124 	"/>
	<polygon class="st0" points="436.6,129.1 434.7,128.9 434.5,126 436.4,123.1 438.4,124.1 437.8,127.6 	"/>
	<polygon class="st0" points="514.4,132.4 515.7,129.8 516.5,129.6 516.4,131.8 	"/>
	<polygon class="st0" points="389.3,133.4 390.2,130.4 391.7,131 391.9,132.8 	"/>
	<polygon class="st0" points="461.3,142.6 457.2,143 456.6,140.6 459.5,139.4 462,141.2 	"/>
	<polygon class="st0" points="351.9,144.5 351.1,142.8 354.3,141.8 354,143.1 	"/>
	<polygon class="st0" points="280.5,146.7 279.7,144.1 281.9,143.3 281.7,145.7 	"/>
	<polygon class="st0" points="401.9,149.8 398.9,148.6 402.2,144.6 402.9,146.6 	"/>
	<polygon class="st0" points="475.2,148.4 466.3,148.6 463.5,149.9 461.5,147.1 463.8,145.6 469.4,144.4 473.3,141.2 	"/>
	<polygon class="st0" points="277.6,150.8 275.3,148.1 277.9,147.9 	"/>
	<polygon class="st0" points="493,151.1 491.8,147.5 492.8,147.4 495.6,149.6 	"/>
	<polygon class="st0" points="473.7,153.8 469.4,154.4 467.3,153.4 467,151.7 469.3,151.2 473.9,152.9 	"/>
	<polygon class="st0" points="380.9,155.5 379.1,154.9 379.2,152.3 381.7,155 	"/>
	<polygon class="st0" points="461.3,157.3 455.8,158.2 457.8,154.8 461.9,153.7 462.5,153.9 	"/>
	<polygon class="st0" points="337.1,181.8 340,178.1 339.7,181.2 	"/>
	<polygon class="st0" points="376.2,184.8 376.1,181.9 378.6,182 378.7,184.3 	"/>
	<polygon class="st0" points="452.5,311.5 449.9,311.3 450.3,308.6 452.9,310.4 	"/>
	<polygon class="st0" points="465,316.8 466.8,313 467.3,314.2 466.6,316.2 	"/>
	<polygon class="st0" points="488.8,340.3 484.3,341 482.1,339.8 469.4,324 466.9,322.8 466.8,322.1 468.9,320.9 470.9,318.1 
		471.9,318.5 473.2,323.8 483.5,337.1 487.4,338.3 	"/>
	<polygon class="st0" points="491.7,345.2 490.1,345.4 489.5,343.9 490.9,341.2 492.1,343.1 	"/>
	<polygon class="st0" points="485.7,346.1 483.4,345.1 485.8,343.3 	"/>
	<polygon class="st0" points="484.2,358.6 486.9,355.1 489.7,354.8 489,356.4 	"/>
	<polygon class="st0" points="480,361.7 477.6,362.1 477.7,360.2 479.2,358.5 481.7,358.3 481.4,360.1 	"/>
	<polygon class="st0" points="457.7,404.8 456.1,404.3 455.7,401.4 458.2,403.1 	"/>
	<polygon class="st0" points="491.9,407.6 489.9,406.2 490.8,404.2 493.4,403.2 	"/>
	<polygon class="st0" points="488,415.8 488,410.2 490,412.4 	"/>
	<polygon class="st0" points="512.6,431.3 514.6,427.9 514.8,430.5 	"/>
	<polygon class="st0" points="502.4,437.9 496.5,437.5 491.4,431.8 494.1,431.3 498.3,434.1 503.1,434.4 	"/>
	<polygon class="st0" points="517.7,440.4 516,439.4 515.7,437.3 517.7,436.4 519.2,439.8 	"/>
	<polygon class="st0" points="511.8,442.9 511,441.3 512.9,439.3 513.3,442.6 	"/>
	<polygon class="st0" points="523.8,451.7 523.7,449.5 522.3,447.8 522.2,445.9 525.7,448.5 525.1,451.1 	"/>
	<polygon class="st0" points="494.2,456 493.4,456.1 493.2,448.6 497.5,444 499.7,443.7 501.5,446.7 501,448.7 496.8,451.1 	"/>
	<polygon class="st0" points="517,457.3 515.5,457.5 514.6,452.8 515.8,451.5 517.4,453.8 	"/>
	<polygon class="st0" points="513.4,460.8 510.8,461.2 513.1,458 514,459 	"/>
	<polygon class="st0" points="524.9,478.1 523.4,477.6 524.3,473.3 525.6,473.1 	"/>
	<polygon class="st0" points="535.1,483.9 533.8,483.9 529,478.7 529.9,477.8 533.7,480.2 	"/>
	<polygon class="st0" points="526.8,496.2 524.3,495.4 526.8,492.3 528.5,493.6 	"/>
	<polygon class="st0" points="518.8,496.8 516.7,494.3 520.3,493.9 520.7,496 	"/>
	<polygon class="st0" points="509.1,502.5 505.5,501.4 505.1,499.9 506.8,499.1 509.3,501.5 	"/>
	<polygon class="st0" points="564.2,551.8 561.6,551.7 562,550.2 564.4,550.8 	"/>
	<polygon class="st0" points="631.9,637 631.5,633 633.4,633.8 633.7,635.7 	"/>
	<polygon class="st0" points="604.2,645.1 599.6,641.7 599.9,639.4 604.4,643.5 	"/>
	<polygon class="st0" points="621.2,650.3 618.9,650.6 615.2,647.2 614.8,643.6 613,640.8 616.5,639.7 617.7,642.8 620.9,647.3 	"/>
	<polygon class="st0" points="761.9,772.3 766,768.7 769.4,767.5 770.9,769.6 	"/>
	<polygon class="st0" points="1797.4,813.5 1798.5,815.3 1797.7,821.3 1796.3,819.2 1796.3,817.5 1796.3,814.6 	"/>
	<polygon class="st0" points="1803.2,825 1798,810.8 1802.1,816.8 	"/>
	<polygon class="st0" points="1807.1,829.8 1805.6,829.5 1805,822.3 	"/>
	<polygon class="st0" points="1803.3,832.1 1801.6,830.5 1800,822.4 1800.9,822.4 	"/>
	<polygon class="st0" points="1798.1,836.2 1799.3,836.9 1799.7,843.4 1798.5,843 1797.7,838.9 	"/>
	<polygon class="st0" points="1838.8,847.9 1839.4,847.1 1842,846.7 1843,846 1846,843.9 1853.8,835.5 1863.5,827.2 1864.3,827.3 
		1859.7,838.7 1857.8,839.3 1856.6,846.4 	"/>
	<polygon class="st0" points="1824.5,850.9 1823.1,850.9 1822.8,849.9 1835.7,848.1 1829.5,850.4 	"/>
	<polygon class="st0" points="1800,849.6 1805.3,849.2 1807.6,850.2 1808.1,851.7 1801,851 	"/>
	<polygon class="st0" points="1463,1005.9 1464.9,1007.6 1465.8,1012.1 1465.4,1013.4 1464.4,1013 	"/>
	<polygon class="st0" points="1002.9,1039 1004.7,1043.6 1004.8,1045.2 1000.6,1048.8 997.8,1054.3 994.6,1054.6 993.3,1062 
		989.7,1064.9 988.1,1064.5 987.1,1064.3 990.3,1061.8 988.5,1058.3 985.2,1046.9 985,1043.6 983.8,1042.5 983.6,1039.9 
		989.3,1037.5 993.7,1036.1 998.9,1034.9 1002.1,1037.2 1000.3,1036.8 999.2,1037.8 996.3,1037.7 994.5,1038.2 993.9,1039.4 
		994.1,1040.1 1000.6,1038.8 	"/>
	<polygon class="st0" points="915.9,1116.5 916.6,1111.5 920.3,1108.1 924,1116.5 923.3,1121.6 919.6,1126.7 915.9,1123.3 	"/>
	<polygon class="st0" points="800.1,103.6 801.3,105 804.1,101.7 802.7,93 802.4,80.8 798.1,66.4 797.8,65.7 796,55.1 793.4,52.8 
		791.4,47.7 793.2,40.4 797.6,35.3 796.3,34.2 795.7,30.6 801.4,15.7 802.9,5.1 802.6,3 797.7,-31.5 798.6,-38.5 796.6,-54 
		809.5,-52.7 813.5,-37.5 827.6,-2.3 834.9,0.2 840.1,-1.3 840.8,2.9 843.2,2.6 844.1,0.2 839.4,-6.8 836.7,-14.7 832.9,-23.7 
		830.2,-32.7 825.2,-48.9 825.6,-53.3 2074.5,-81.5 2047,649.8 2038.9,652.6 2035.8,652.5 2035.4,652.5 2015.8,665.4 2014.9,668.1 
		2013.7,670.6 1995.9,685.5 1992.3,690 1987.1,694.4 1977.7,706.5 1971.1,713.2 1969.1,711.7 1967.5,713.6 1966.8,716.4 1955.3,726 
		1945.7,730.6 1945.1,732.1 1942.9,736.6 1932.9,741.2 1931.3,740.2 1935.6,736.6 1925.7,736.6 1923,736.6 1924.9,743.1 
		1924.5,743.7 1926.1,743.6 1923.2,747 1921.6,750.4 1921.8,751.8 1929.5,743.6 1930.4,744.7 1928.7,748.8 1925.1,753.5 1919.9,758 
		1918,758.1 1917,760.2 1917.8,762.9 1913.1,767.3 1907.7,774.3 1905.3,776.1 1897.9,787.1 1893.4,793.7 1889.3,795 1875.6,811 
		1868.7,822 1865.8,824.8 1863.2,824.7 1862.2,823 1864.4,817.6 1867.2,816.8 1869,815.2 1870.1,813.5 1872.2,810.5 1884.8,796.6 
		1890.7,792.1 1901.2,781.3 1903.3,776.4 1900.6,776.1 1895,780.1 1894.4,782.8 1891.6,787.8 1891.3,788.3 1885.8,792.5 
		1884.3,794.8 1880.3,798.6 1875,801.6 1866.2,808.5 1859.6,811.7 1854.6,812.9 1853.3,813.3 1849.9,812 1843.8,811.1 1843.7,812.4 
		1847.8,814 1850.5,814.1 1849.3,815.7 1840.1,815.1 1835.2,818.9 1833.8,818.8 1833.2,821.2 1830.4,821.9 1828.7,834.8 
		1827.4,838.7 1825.9,840.1 1824.7,836.9 1824.9,826.6 1822.5,823.2 1820.4,829.6 1821.1,837.5 1820.7,841.9 1818.5,848.8 
		1815.9,839 1815.9,830.4 1813.9,833.2 1812.3,833.4 1810.3,830.7 1808.1,825.6 1807.4,821.1 1804.9,818.5 1802.4,806 1798.1,801.1 
		1796.3,803.6 1796.2,808.6 1794.6,810.4 1795.9,819.3 1797.1,834 1796.1,839.7 1796.6,845 1794.4,849.3 1790.8,853.2 1786,854.4 
		1780.5,853.8 1774.2,855.3 1767,855.8 1761.5,855.6 1757.3,856.1 1741.8,855.1 1728.6,856.1 1727.6,855.9 1717,854.6 1714.2,854.7 
		1706.4,854.9 1699.5,856.1 1696.7,857.9 1696.8,854.7 1697.3,850.7 1696.7,849.9 1696.7,850.8 1695.2,851.4 1691.3,857.8 
		1688.7,859.1 1678.6,861.4 1677.2,860.8 1672.4,862.7 1669.6,862.8 1660.9,865.6 1660.2,866.9 1654.7,868.7 1653.5,866 
		1652.2,866.7 1653,869.7 1640.7,872.9 1631,878.6 1628.5,879.2 1628,877.9 1630.4,870.4 1627.9,872.8 1625.1,875.2 1624.9,877.2 
		1624.7,881.6 1619.6,883.3 1608.7,889.3 1595.5,899 1594.2,897.6 1590.3,900.4 1591,902.9 1590.3,905.5 1587.8,910.6 1583.4,912.2 
		1583.8,913.3 1582.7,914.1 1576.3,924.6 1572.5,933.3 1562.2,944 1558.8,945 1553.5,944.9 1546.3,943.4 1540.7,940.5 1540.8,942 
		1546.1,946 1557.8,950.2 1564.8,945.7 1570.7,937.7 1572.1,939 1566.5,945.7 1562.7,953.1 1560.1,960.3 1554.5,976.2 1546.2,987.6 
		1538.8,995.5 1532.7,1000.6 1520.4,1009.7 1517.9,1011 1501,1019.5 1496.2,1023.7 1494,1022.9 1484.9,1030.9 1476.6,1027.3 
		1473.9,1023.6 1472.2,1019.7 1471.8,1016.1 1472.5,1012.4 1474,1010.3 1474.6,1009.4 1477.7,1000 1475.5,989.2 1472.6,980.1 
		1460.7,963.2 1453.3,959 1448.2,953.6 1443.7,953.2 1446.3,955.7 1449,962 1455.3,964.2 1466.5,980.4 1469,985.7 1470.3,991.9 
		1474.2,998.1 1470.1,1013.2 1469.5,1012.9 1469.3,1008.5 1469.5,1007 1470.3,1002.4 1467.5,988.2 1464.7,983.6 1462.9,981.9 
		1462.4,983.4 1461.9,984.5 1464.2,986.6 1467.1,993 1466.4,999.1 1462.8,996.3 1461,993 1460.2,984.9 1458.3,980.3 1457,973.3 
		1455.5,971.9 1454.4,975.4 1455.1,980.1 1457.1,984.8 1456.4,987 1451.9,985.1 1448.6,984.9 1443.4,987.5 1437.4,980.2 
		1431.9,980.4 1427.1,982.3 1428.9,983.4 1434.3,982.4 1436,983.4 1441.9,990.7 1453.9,991 1457.1,993.9 1456.7,999 1459.2,1001.1 
		1460.7,1003.8 1461.1,1010 1458,1007.6 1452.8,1008.6 1449.4,1004.3 1445.4,1001.2 1442.4,1000.9 1435.7,1002.7 1433,1005.3 
		1435.6,1006 1444,1005.3 1445.3,1006.6 1448.1,1007.4 1450.7,1009.3 1455.4,1015.2 1457.8,1016.6 1459.9,1021.4 1464.3,1027.7 
		1466.1,1026 1462.9,1017.6 1467.3,1019.4 1468.3,1022.1 1470.8,1029.4 1473.5,1031.3 1480.9,1031.3 1480.7,1032.7 1473.7,1034.5 
		1461.9,1034.9 1442.5,1041.9 1435.2,1043.9 1421.4,1047.8 1414.2,1051.2 1405.4,1052.2 1399.9,1055.3 1390,1057.8 1372,1064.3 
		1369,1067.2 1364.2,1068.4 1355,1068.5 1345.1,1067.4 1326.5,1063.5 1315.8,1059 1314.4,1058.8 1309,1058 1305.5,1056.2 
		1288.5,1057.5 1286,1063 1271.4,1061.2 1271.5,1059.8 1277.6,1059.1 1279.1,1057.8 1274.1,1053.9 1270.7,1052.2 1265.7,1049.9 
		1262,1049.6 1261.9,1052.1 1264.5,1055.4 1265.6,1058.2 1267.5,1058.9 1267.9,1060.4 1264.9,1062 1261.5,1061.7 1253.6,1057.5 
		1246.3,1056.2 1243.1,1054.5 1241.9,1051.4 1239.5,1051.8 1229.6,1046 1226.3,1045.7 1217,1037.7 1214.8,1036 1203.2,1031.4 
		1198.6,1033.1 1192.1,1028.8 1182.8,1025 1178.1,1021.8 1167.2,1016.8 1157.5,1011.3 1153.9,1010.8 1151.1,1008.3 1150.1,1008.5 
		1146.9,1009.2 1144.6,1005.7 1140.7,1006.4 1137.9,1004.3 1126,999.6 1122.9,997.6 1114.9,996.9 1096.4,991.4 1088.1,990.9 
		1076.4,991.1 1069,989.6 1064.4,990.2 1058.6,989.2 1058,989.3 1048,991 1044.1,992.7 1042.7,991.3 1041.5,988.2 1042.7,981.5 
		1041.1,981.4 1039.1,988.6 1040,992.5 1026.9,993.6 1017.9,992.2 1014.8,990.3 1008.3,986.5 973.3,956.8 972.2,953.7 975.7,953.9 
		977.2,953.4 977.6,951.8 975,948.7 969.4,947.1 971.4,952.1 970.1,952.8 966.9,948.5 963.6,946.1 959.4,941.3 957,937.7 
		957.9,935.7 959.8,936.1 960.9,934.5 958.7,932.4 957.1,931.7 955.1,937.1 953.3,937 943.9,927.4 940.5,922.7 930,912.7 
		924.7,908.6 921.1,907.1 916.9,901.7 906.2,892.4 890.2,878.5 883,872.8 869,863.7 872,862.2 875.3,863.3 884.1,861.6 886.7,857.6 
		888,855.1 889.1,849.3 891.9,843.3 891.4,841.5 892.8,836.6 897.9,825.1 894.7,826.1 889.8,831.1 889.4,834.7 886.5,834.4 
		883.5,844 878.5,848.9 863.1,856.3 864.7,859.3 863.1,860 845.7,847.7 843.9,845.1 841.9,844.9 837.3,842 830.6,835.7 827.6,835.3 
		825,836.2 822.5,835.2 820.5,832.5 819.9,831.8 804.1,827.4 790.5,819.4 782.4,810.7 774.8,805.9 771.5,804.7 770.1,802.1 
		771.7,794.8 768.6,782.2 765.6,779.8 765.9,777.9 767.2,776.7 767.3,775.3 769.2,773.4 776.9,771.1 781.1,771.4 787.2,776.3 
		789.8,771.2 786.2,769.2 783.7,768.8 782.4,767.4 779.5,767.5 775.4,768.6 770.6,766.7 765.9,767.3 759.8,771.3 756.4,775.1 
		754.6,778.2 752.3,780 751.8,779.7 751,779.7 750.3,779.7 748.5,779.6 747.7,780.3 747.4,780.5 747.1,782 746.4,781.9 746.1,781.8 
		745,782 745,784.3 747.4,788.8 752.2,794.6 757.6,797.7 766.2,801.3 769.4,804.4 769.2,805.4 768.6,805.2 749.8,799.2 747.8,799.6 
		731.9,806.8 730,810.7 733.7,818.6 732.9,820.3 729.5,821.4 723.6,821.8 719.4,821.6 710.1,821.2 688.1,827.7 681,828 677.5,831 
		663,835.6 656.2,832.3 655.6,831.5 649.2,823.8 641,811.4 632.1,811.2 626.6,809.4 624.9,811.3 622.8,816.9 620.5,818.7 
		604.3,823.9 600.9,826.4 595.5,826.8 590.8,826.2 586.1,827.7 581.6,826.2 579.3,827.7 568.6,829.6 567.8,829.8 559.6,829.8 
		552.7,827.2 548.5,827.5 544.4,828.7 541.9,831.2 540.4,830.9 536.7,830.1 522.3,826.8 518.6,823.7 511.9,824.3 508.8,822.2 
		507.8,820.4 501.1,816.5 498.8,817 488.9,825.6 486.3,825.9 485.8,829.5 486.3,832.1 485,834 480.9,832.1 480.2,830.1 481.5,828 
		480.2,827.2 472.6,830.8 470,833.5 463.1,831.3 455,840.7 448.2,840.4 439.8,838.7 436.3,836.3 433.1,835.6 431.9,835.4 427.2,837 
		418.5,844.5 415.3,845.7 412.3,846.9 411.2,842.4 409.1,842.4 405.1,836.5 404.4,834.1 405,832.5 407.5,830.7 409.7,826.7 
		412,824.7 412.3,820.3 413.8,816 411.8,814.4 410,811.4 408.6,808.9 406,806.6 405.5,807.5 404.3,805.5 403.6,800.7 405.6,794.3 
		408.6,794 413.2,783.7 413.6,778.7 415.4,775.7 415.4,772 427.8,769.3 428.7,767.8 427.4,764.3 425.2,764.9 421.4,766.1 
		415.8,764.2 413.5,764.3 411.6,762.3 409,761.8 405.3,757.3 404.3,754.1 401.2,754.4 399.5,751.1 401.6,749.3 400.5,747.9 
		400.8,746.8 412.7,736.6 414.2,727.4 413,718.7 414.1,716.9 412.8,712 414.2,708 413.5,704.4 414.8,697.5 415.7,696.1 418.5,691.3 
		428.4,694.9 430.2,698.4 429.7,698.5 433,702.1 436.4,703.6 440.3,710.5 443.4,712.6 444.6,715 447.1,715.9 450.9,720.9 
		454.7,736.6 450.9,739.1 452.3,745.1 451.8,747.9 452.4,750.1 457,746 458.9,745.2 471.4,750.1 481,751 486.8,749.6 487.1,748.6 
		487.6,747.1 487.3,741.7 487.9,739 491.8,736.6 496,731.5 500.5,730 502.2,731.5 505.6,731.2 514.2,724.5 519.4,720.4 525.6,719.9 
		532.8,726.5 538.9,728.4 539.9,726.5 544.2,725.8 551,719.1 552.3,714.7 558.4,712.7 561.5,710 563.4,711 569.1,710.1 569.9,710 
		571.7,713.4 573.9,710.7 577.9,709.8 583.4,700.7 586.6,703.6 589.7,702.1 595.4,701.7 592.1,697.5 591.4,697.7 587.9,694.4 
		582.3,692.4 577.6,687.1 579.7,686 578.3,683.8 575.2,684.4 572.8,685.7 571.4,685.6 572,683.9 573.7,683.2 573.8,680.2 
		575.3,678.6 575.1,676.3 583.5,671.4 584.2,672.7 581.3,676.1 584.1,676.7 586.2,674.4 589.5,672.9 591.4,677 591.1,679.8 
		587.5,676.9 586.9,678.7 583.7,679.8 580.6,680.9 581.2,682.6 585.2,684.2 592.1,682.7 593.4,684.8 598.6,683.8 598.2,680.6 
		601.7,680.9 603.6,680 603.3,678.3 597.7,676.7 596.7,675.2 597.5,673.4 603,673.8 604.7,672.3 604.6,671.6 595.7,668.7 593,666.2 
		592,664.5 588.4,658.7 583.2,654.9 578.5,653.1 574.5,654.2 574.6,651.4 577.3,650 578.5,647.7 582.8,649.2 586.6,653.3 590,654.1 
		592.8,652.6 595.7,648.4 596.9,649.3 595.7,653 597.9,655.7 601.7,653.6 602.4,655.9 602.6,656.4 607.5,655.6 608.3,651.5 
		611.2,650.7 615.1,654.8 617.5,654.7 619.7,660.1 619.4,665.5 620.6,667 622.3,664.6 627.5,665.6 630.6,665.2 630.5,664.5 
		623.6,660.9 624.2,657.8 626.7,657.2 626.9,654.9 624.7,653.6 624.6,652.6 627.6,651.9 629.5,651.5 629.7,651 630.2,649.8 
		623.1,645.1 624.2,641 628.5,639.5 633.4,643.8 633.9,646.7 632.5,649.5 633.4,650.2 638.8,649.2 642,646.8 640.6,644.7 
		641.1,643.2 645.5,642.4 648.5,640.8 651.2,641.1 651.1,640.5 656,639.5 656.1,638.2 651.6,636.4 648.3,635.1 640.4,639.1 
		637.9,638.6 636.3,640.2 635,638.9 638.6,634.2 636.2,630.3 637,628.9 639.7,627.8 642.3,629.1 645.3,625.7 645.4,626.4 
		648.8,626.8 651.8,623.9 648.2,621.3 637,624.9 634.8,623.8 628.9,620.8 623.2,622.8 621.8,621.5 624.7,619.4 625.7,613.9 
		624.2,607.1 619.1,605.4 613,606.4 612.7,609.1 608.6,610 606.6,609.6 605.5,611.2 602.8,609.2 604.2,607.3 607.9,606.2 
		605.2,603.8 606.2,602.5 606.6,602.5 608.9,602.2 610.6,598.4 610.4,592.1 611.5,591.2 622.1,576.4 626.2,574 644.5,548.6 
		646.3,548.4 650.7,551.8 655.6,550.7 657.3,551.7 657.9,552.1 661.6,551.1 665,552.2 668.1,551.6 669.2,549.4 667.4,547.8 
		659.5,548 657.9,543.1 663.4,538.2 669.2,535.6 672.2,531.5 673.4,531.3 675.7,530.8 677.8,532.1 679.7,531.2 679.7,527.6 
		683.8,528.2 685.4,531.1 684.1,534.9 686.7,538.1 691.5,538.2 693.6,535.8 696.3,535.1 696.3,535.6 701.4,533.4 702.3,538.7 
		707.8,542.1 716.5,541.2 719,536.7 721.5,531.8 725.7,528.4 731.6,527.1 733.7,526.1 734.9,525.5 734.8,524.9 728.2,523.5 
		724,524.1 718.9,527.3 717.2,531 713.1,533.8 707.8,533.1 706.6,530.9 714.9,527.9 717,525.8 716.1,523 711.1,519.3 702.3,519.1 
		701,519 693.7,521.2 689.5,520.3 686.6,520.9 677.2,517.8 673.7,514.1 661.2,516.4 655,522.1 650.9,523 650.2,524.4 641.9,531.5 
		639,536.6 638.7,536.7 631.8,539.2 627.3,548.4 623.6,551.1 620.5,555.3 612.6,559.5 604.2,567.7 599.8,568.4 596.9,571 
		594.7,569.8 585,570.8 581.1,571.3 572.8,571.1 568.8,566.9 565.2,564.8 561.7,564.4 557.9,566.8 556.5,564 560.1,562.2 
		562.4,557.2 565,556.6 566.5,553.1 569.7,552.5 574.9,541.8 576.5,542.3 577.5,544.5 579.4,541.4 583.4,537.2 583.6,533.4 
		587.3,534.2 592.8,532.4 595,534.5 596.9,534.2 598.2,530.5 600,530.1 602.8,533.1 606.5,532.2 609.6,530.8 609,527.4 609.8,525.4 
		614.1,524.2 613.4,523.2 611.9,521.1 605.2,524.6 600.7,519 598,519.5 598.1,520 594.6,519 591.2,522.1 588.9,521.5 585.7,522 
		583.8,524 585,529.8 583.4,530 576.4,524.1 574.9,521.9 571.5,516.6 575.2,506.7 577.6,505 576.3,497.8 577.1,488.7 579.7,487.5 
		579.4,496.6 583.3,493.1 583.5,482.3 586.2,479 585.2,475.9 586.6,470.3 592.2,457.4 593.3,457.2 595.1,459.3 596.5,459.3 
		598.6,456.3 603.5,454.6 609.2,447.8 613.2,449.5 622,446.3 627,443.6 631.1,445 634.5,444.2 635.8,444.9 637.5,443.9 637,441.4 
		635.5,441.1 632.1,437.7 631.3,438.3 624.1,438.6 623.5,437.1 629,435.3 632.3,432 635.5,423.5 638.9,419.9 637.1,417.8 631,419 
		625.9,418.8 623.4,421.5 617.4,424.9 614.1,425.8 613.6,427 616.3,430.8 612.9,431.9 609.7,429.9 607.8,432.1 606.2,436 604.5,437 
		600.7,444.4 598.3,445.7 597.9,443.5 600.9,438.8 602.4,436.5 600.2,433.9 596.9,436.7 593.6,437.1 587.2,448.1 580.3,448 
		574.7,451.8 572.4,443.2 576.1,437 579.1,429 579,425 577.5,425.2 573.8,429.5 574.1,432.6 574.2,433.4 569.6,438.3 567.9,443.5 
		567.1,448.4 568.6,453.5 565,455.6 561.1,460.3 562.3,464.2 561.3,478.7 559.4,480.1 556.3,479.9 555.1,479.6 555.5,476.3 
		553,477.1 550.2,479.8 543.3,486.2 541.5,485.8 543.8,481.8 547.1,479.3 547.4,477.1 541.6,480.8 539.2,480.7 536.8,479 
		535.7,476.9 535,477 532.6,474.1 532.7,466.7 530,466.4 530.4,462.5 529.5,462.3 523.7,470.9 522.7,471.3 522.7,470.4 522.5,467.3 
		531,449.5 532.3,445.2 526.6,445 525.8,440.5 526.5,439.3 528.8,439 529.1,437.2 527.4,435.2 522.7,437.6 522.5,435.5 526.1,431.5 
		522.7,429.3 522.3,427.2 524.7,424 525,423.6 525.8,420.4 524.2,420.5 518.8,427 516.2,425.2 512.1,427.5 508.8,432.3 507.2,432.5 
		504.4,430.9 502.1,432.3 496.9,422.8 498.4,418.7 495.3,417.4 496.9,413.9 496.8,406 500.8,402.5 499.9,400.8 499.8,400.6 
		494.1,401.9 492.3,397.2 489.1,391.9 489.6,389.1 474.5,378.9 474.2,373.8 476.7,374.4 479,379 482.2,381.7 491.8,387 491.7,386.4 
		493.7,386 503.4,383.9 503.7,382.5 501.2,380.2 495.6,383.2 495,381.9 500.1,369.8 501.5,368.5 508.8,368.1 506,365 499.8,362.9 
		501.9,358.7 504.5,353.9 483.3,371.8 481.8,371.3 482.2,370 482.9,366.8 481.1,363.4 487.3,360.4 491.4,357.2 495.5,347.8 
		498.8,347.2 500.2,340.2 500.5,333.7 502.5,332.1 507.5,330.1 508,327 506.9,323.7 501.1,321.8 496.6,318.5 494.9,318.3 493.1,320 
		490.6,320.4 489.1,318.9 485,319.5 480.9,323 476.1,320.8 476,320.2 480.4,318.5 479.1,314.1 482.6,312.4 482.9,309 478.6,310.2 
		474.7,311.3 476,308.9 481.6,304.6 484.5,295.9 483.9,293.7 488.5,290.5 487.5,289.5 484.2,289.7 480.5,293.5 479.9,298.7 
		477.5,301.8 472.5,301.2 472.3,299.5 472.7,298 474.4,297.3 475.8,296.6 475.9,295 475.1,293.5 474.5,293.6 473.6,295 472.7,297 
		471.8,297.3 469.4,297.3 467.8,297 466.9,298.9 466.8,301.9 465,303.3 458.8,300.6 456.7,298 453.5,299.8 441.3,310.9 441.4,311.7 
		447.9,313.8 448,314.5 444.6,315.7 434.7,313.8 428,318.4 426.3,318.4 425.4,318.4 417.2,312.9 418.9,311.5 427.9,314.5 430,313.9 
		431.3,310.1 427.5,307.9 425.4,309.5 422.3,307.5 423.9,305 423.3,300.4 420.1,299.8 417.6,297.8 414.9,297.6 413.3,297.4 
		403.3,300.6 399.8,299.7 396.4,300.8 396.6,302.3 408.4,310.1 413.3,314.3 413,315.3 405.8,311.5 398.4,306.3 391.6,304.5 
		388.8,304.1 384.3,303.6 380.2,299.9 361.8,304 356.6,304 351.5,300.3 341.3,299.7 341,300.4 335.1,302.5 328.6,300.3 321.4,300.8 
		311,298.7 302.8,295.1 297.4,294.3 280.6,287.2 275.2,286.8 262.7,285.9 254.8,287.7 250.6,291 250.8,297.2 249.5,300.5 
		244.9,303.3 238.3,305.4 235.3,305.1 229.7,301 223.1,299.2 218.4,299.5 206,300.3 205.8,299.3 209.6,297.5 221,296.5 218,294.4 
		212.9,293.4 209.1,294.7 199.9,300.1 191.6,310.2 191,312.9 191.5,313.8 194.3,319 192.7,323 188.6,328.5 189.3,328.4 190.6,332.2 
		182.9,334.4 175.5,331.4 170.4,333.5 164.2,336.1 157.9,335.9 151.1,340.9 146.3,336.4 143.5,335.9 141.2,333.5 137.4,332.6 
		136,330.8 132.7,330.8 129.6,328 123.6,326.9 123.4,322.4 119.6,312.8 119.4,312.4 116.3,308.1 109.1,291.6 109.9,286.8 
		107.2,286.5 106.4,289.7 104.2,290.1 102.6,288.6 99.8,279.1 94.7,269.4 92.3,254.9 94.6,253.6 99,256.2 103.1,253.9 106.1,254 
		109.4,249.5 111.8,249.1 114.1,244.3 118.8,241.9 121.7,236.7 124,236.1 127,237.2 134.2,231.9 137.2,231.7 140.5,232.9 
		144.1,229.6 146.6,232.1 147.7,233.1 145.1,233.8 145.1,235.6 150.9,241.2 153.2,241.6 148.7,235.2 150.5,234.7 157.7,242.5 
		170.1,245.5 174.6,248.9 181.2,250.5 183.1,250.3 187.3,249.9 190.2,251 195.2,247 200.4,237.5 203.2,237.4 206.9,239.1 
		212.6,237.7 217.1,233.9 221.9,222.4 225,218.8 228.3,218.3 234,219.8 234.7,220 239.9,219.9 246.1,217.6 248.3,217.8 248.9,218.9 
		247,221.6 254.5,222.4 250.4,211.4 254.1,211.8 257.7,209.3 258.1,207.8 263.4,210.6 264.8,216.8 261.4,222.6 261.4,224.7 
		261.4,225.6 263.2,227.2 266,226.7 267.7,225.1 265.6,222.3 267.5,219.9 270.2,219.5 272.4,220.8 273.9,225.5 270.5,228.5 
		270.5,231.8 274.3,234.2 279.7,231 281.5,231.1 284.4,233.5 287.5,233.2 288.5,233.1 290.9,230.2 293.3,217.1 290.5,212 
		290.6,206.3 287.4,197.4 288.4,192.5 290.4,189.7 293.4,185.5 297.8,181.4 304.4,183.3 307.6,184.9 309.5,186 322.1,188 
		322.4,189.1 321.8,189.7 315,197 312.1,204.1 313.6,209.3 309.5,209.6 308.1,214.9 304.2,219.9 307.7,225 309.6,223.7 312.4,227.8 
		313.4,229.3 313.9,233.9 316.7,234 319,238.1 320.4,237.4 320.9,230.9 318.1,213 318.6,211.6 321,212.6 321.8,210.2 327.1,211.2 
		331.5,214.3 335.9,214.2 338.7,218 338.3,220.3 336.8,229.1 337.8,230.7 339.3,229.9 341.4,220.9 340.5,213.8 338.3,211.3 
		329.9,210 328.6,208.4 331.3,196 335.6,190.8 336.9,189.7 340.8,186.5 342.6,185 350.1,185.2 355.2,188.5 356,189.7 357.3,191.7 
		358.1,198.2 362.2,197.8 364.2,194.1 367.3,193.4 371.7,189.7 373.9,187.9 377.1,187.6 379.7,189.7 379.8,189.7 384.5,184.8 
		393.1,180.2 393.4,180 395.6,176.9 375.6,175.3 374.9,173.6 376.2,171.5 384.8,168.3 386,170.8 388.6,170.1 391.1,161.8 
		400.2,157.6 402.9,152.3 404.5,151.2 407.6,148.9 410.1,149.9 410.6,152.4 407.7,155.6 408.1,157.8 412.9,154.5 415.2,157.8 
		418.6,160 415.1,160.8 413.7,165.4 418.1,165.1 418.2,165.7 415.1,169.2 414.1,173 410,174.4 406.6,177.3 404.1,178.1 403.4,179.5 
		405.5,180.3 408.7,179.9 408.8,179.9 410.8,177.7 414,178 416.9,174.3 419.1,175.5 417.8,180.3 416.5,181.6 420.3,183.8 
		420.3,187.9 420.9,189.7 421.4,191.5 426.5,195.4 430.4,194.7 437,199.6 442.2,207.9 443.5,208.1 441.9,202.8 441.1,201.5 
		434.1,191.3 433.5,189.7 432.8,187.9 435.3,182.9 434.6,179.2 438.2,175.7 439.5,173 444.3,175.6 445.9,175.4 444.7,169.4 
		452.7,163.3 458.9,165.1 462.3,164.9 472.1,167.2 479.8,164.9 485.4,161.4 493.6,161.3 495,159.3 496.4,159.6 502.2,157.3 
		503.8,159.7 508.3,161.2 510.7,165.5 516.3,164.7 528.6,168.6 529.1,173.2 530,173.3 536.8,173.8 538.5,175.6 539.6,174.4 
		543.7,173.7 547,177.6 548.9,177.4 551.8,170.4 556.4,173.1 557.7,173.1 559.7,170.9 571.9,172.1 580.7,176.4 589.3,175.4 
		593.8,178.7 597.6,178 605,176.6 624.2,175.7 626.2,178.8 628,177 630.8,174.8 631,171.5 632.7,168.4 630.6,158.5 625.2,156.4 
		622.7,155.4 621.5,151.2 623.9,146.7 632,140.8 634.3,137.1 633.3,129.4 637.1,126.8 641.5,118.3 644.1,109.3 646.1,107.1 
		649.3,96.6 648.6,96.7 647.5,92.9 646,83.1 642.7,78.4 642,79.1 636.6,77.6 632.3,78 625.8,78.7 624,80.3 623.3,86.1 620.6,89.1 
		621.7,94.8 620.9,98.6 618.7,97.5 614.2,104.1 607.7,108.9 598.4,118.6 582.3,129.5 577.4,130.9 563.6,131.8 560.8,133.1 
		557.9,132.1 554.2,132.3 552,130.7 550.6,129.7 549.8,126.1 542.5,125.3 538.3,125.9 535.7,124 529.8,124.9 527.3,123.5 
		522.9,125.1 519.6,123.5 516.1,120 509.1,116.6 507,116.5 503.1,113.2 493.7,108.8 491.6,104.9 487.9,97.9 484.3,98.6 483.5,103.5 
		478.8,103.5 474.8,104.6 473.3,108.1 471.2,106.4 469.2,106.3 466.5,103.7 458.4,102.9 451.4,103.7 447.4,100.4 448.8,98 
		447.6,94.8 450.5,94.4 452.9,95.9 456.4,98.3 460.1,98.1 462.8,96.1 466.8,89.7 471.6,91.6 474.2,89.3 471.9,87.4 459,84.1 
		456.6,84.9 452,88.8 450.3,88 452.7,83.7 458.3,78.3 461.2,66.6 465.3,63.4 467,59.4 469.3,58.6 471.5,59.7 475.1,58.2 478,57 
		481.8,53.8 481.8,49.1 480.7,47.1 484.8,44.6 488.1,39.3 490.3,39.9 490.6,42.6 493,43.1 495.9,39.2 497.4,33.9 496.2,30.3 
		497.2,28.4 501.2,27 506.2,26.4 516.3,21.6 518.7,19.4 523.7,19.3 525.2,19.2 538.2,13.4 545.4,9.5 553.4,0.8 558.6,-2.6 
		569.9,-11.2 571.4,-14.6 574.2,-14.8 577.9,-18.9 578,-18.4 584.3,-18.9 587.3,-21.1 589.8,-28.1 589.1,-28 588.3,-30.2 
		590.4,-29.9 595.7,-20.2 598.6,-21.8 593.7,-30.5 599.2,-33.3 602.4,-39 609.9,-38.1 610,-37.4 632,-42.6 634.5,-41.5 635.6,-42.2 
		643.3,-46.9 650.3,-54.6 633.3,-51 629.4,-49.8 625.8,-50.7 621.6,-54 598.4,-54.5 592.9,-54 589.9,-50.6 588.7,-51.9 538.8,-51.9 
		538.4,-52.5 532.5,-45.2 530,-44.8 528.6,-46.1 526,-44.9 523.1,-48.6 522.2,-49.7 518.3,-49.3 517,-51.7 513.9,-50 706.8,-54.1 
		707.7,-53.2 714.5,-54.7 761.6,-54.6 766.6,-49.6 768.5,-46.9 772.7,-47.7 773.3,-44 770.7,-36.4 775,-30 776.1,-23 774.4,-16.6 
		776.9,-1.8 774.5,11.2 773.2,18 774.3,26.9 778.2,30.2 778.5,35.7 781.4,39.5 780.7,42.3 783,46.4 787.6,54.5 787.9,60.7 
		796.6,78.6 797,90.8 797.7,101 	"/>
	<path class="st1" d="M1632.2,372.8c-2.4,6-9.6,20.4-25.3,16.8c-15.6-3.6-26.5-3.6-33.7,8.4s-9.6,15.6-18,22.9
		c-8.4,7.2-9.6,18-7.2,25.3c2.4,7.2,14.4,18,14.4,18l9.6,1.2c0,0-19.2,12-22.9,18c-3.6,6-9.6,21.7-14.4,32.5s-14.4,24.1-19.2,28.9
		c-4.8,4.8-14.4,52.9-1.2,58.9c13.2,6,14.4,7.2,15.6,15.6c1.2,8.4,14.4,12,13.2,18c-1.2,6-7.2,50.5,12,50.5s22.9,8.4,34.9,7.2
		s24.1-6,26.5-14.4s2.4-12,3.6-16.8s3.6-16.8,3.6-16.8s12,2.4,20.4-6s14.4-18,20.4-12s10.8,0,13.2-4.8c2.4-4.8,3.6-12,9.6-9.6
		s9.6,4.8,14.4,8.4c4.8,3.6,14.4,12,7.2,25.3c-7.2,13.2-8.4,42.1-8.4,49.3s-7.2,33.7,6,42.1c13.2,8.4,43.3,6,50.5-1.2
		s13.2-18,3.6-27.7c-9.6-9.6-21.7-14.4-14.4-19.2c7.2-4.8,12-9.6,13.2-15.6s2.4-13.2,21.7-8.4c19.2,4.8,37.3,3.6,42.1,10.8
		c4.8,7.2-3.6,16.8-9.6,24.1c-6,7.2-9.6,13.2,1.2,24.1c10.8,10.8,24.1,20.4,28.9,25.3c4.8,4.8,14.4,10.8,24.1,10.8
		c9.6,0,30.1-3.6,36.1-13.2c6-9.6,9.6-19.2,12-25.3c2.4-6,4.8-12,10.8-16.8s25.3-13.2,34.9-14.4s22.9-18,16.8-30.1
		c-6-12-10.8-13.2-12-24.1c-1.2-10.8,2.4-26.5,2.4-26.5s7.2,7.2,13.2,14.4s15.6,9.6,21.7,3.6c6-6,10.8-9.6,1.2-18
		c-9.6-8.4-10.8-13.2-10.8-19.2s7.2-10.8,15.6-8.4c8.4,2.4,22.9,6,30.1,8.4s31.9-294.7,19.8-298.3c-12-3.6-51.1-1.2-63.1-3.6
		s-19.2-1.2-27.7,8.4c-8.4,9.6-9.6,19.2-22.9,20.5c-13.2,1.2-27.7,9.6-32.5,21.6s-10.8,30.1-19.2,37.3c-8.4,7.2-30.1,14.4-19.2,4.8
		c10.8-9.6,9.6-15.6,6-27.7c-3.6-12-7.2-26.5-12-22.9s-8.4,9.6-8.4,18s-7.2,21.7-12,12c-4.8-9.6-4.8-16.8,4.8-33.7
		c9.6-16.8,6-28.9,2.4-38.5s-7.2-15.6-16.8-14.4c-9.6,1.2-25.3,10.8-36.1,8.4c-10.8-2.4-32.5-3.6-40.9,7.2s-16.8,13.2-36.1,13.2
		s-36.1,0-39.7,7.2s-7.2,16.8-25.3,26.5c-18,9.6-19.2,20.4-19.2,20.4S1634.6,366.8,1632.2,372.8z"/>
	<path class="st1" d="M1270.1,257.4c-15.6,9.6-19.2,20.5-19.2,28.9s-1.2,25.3,2.4,30.1s8.4,26.5,16.8,31.3s16.8,13.2,20.5,20.5
		c3.6,7.2,24.1,21.7,34.9,13.2c10.8-8.4,18-21.7,20.5-10.8c2.4,10.8,10.8,14.4,20.4,14.4s14.4-3.6,10.8-15.6s-7.2-20.4,4.8-18
		s22.9-1.2,28.9-12s14.4-31.3,14.4-38.5s7.2-13.2-1.2-43.3c-8.4-30.1-20.4-22.9-24.1-34.9c-3.6-12-20.5-7.2-27.7-4.8
		s-16.8-1.2-31.3-9.6c-14.4-8.4-26.5-7.2-33.7-1.2s-15.6,10.8-18,21.7c-2.4,10.8-9.6,19.2-9.6,19.2S1285.8,247.7,1270.1,257.4z"/>
	<path class="st1" d="M1104.1,235.7c-9.6,0-22.9,12-28.9,18c-6,6-27.7,32.5-27.7,40.9s-1.2,22.9-1.2,22.9s-7.2-7.2-14.4,0
		c-7.2,7.2-13.2,19.2-18,25.3c-4.8,6-19.2,9.6-28.9,13.2c-9.6,3.6-34.9,15.6-39.7,21.7c-4.8,6-18,15.6-24.1,20.4s-9.6,40.9,2.4,32.5
		s21.7,4.8,24.1,13.2c2.4,8.4-3.6,18,13.2,21.7c16.8,3.6,25.3-4.8,26.5-12s9.6-25.3,12-4.8c2.4,20.4,10.8,28.9,24.1,14.4
		c13.2-14.4,26.5-25.3,39.7-31.3s21.7-4.8,26.5-19.2c4.8-14.4-6-15.6,8.4-28.9c14.4-13.2,15.6-20.4,10.8-27.7
		c-4.8-7.2-6-13.2,6-21.7c12-8.4,20.5-10.8,13.2-24.1c-7.2-13.2-9.6-14.4-2.4-21.6s13.2-18,8.4-37.3
		C1129.4,232.1,1113.8,235.7,1104.1,235.7z"/>
	<path class="st1" d="M1229.2,869.6c0,0-18-18-18,1.2s0,34.9-6,39.7s-7.5,17.9-11.1,22.7s-11.7,1.4-19-4.6c-7.2-6-21.7-9.6-28.9-9.6
		c-7.2,0-34.9-7.2-38.5,0s0,20.5,8.4,22.9s15.6,8.4,25.3,14.4c9.6,6,29.4,9.8,39.7,1.5c19.4-15.7,33.6,5.7,42.1,14.1
		c8.4,8.4,25.3,13.2,57.7,12c32.5-1.2,36.1-10.8,36.1-19.2s1.2-21.7,9.6-30.1c8.4-8.4,6-21.7,0-26.5s-13.2-13.2-4.8-18
		c8.4-4.8,7.2-12-1.2-25.3c-8.4-13.2-25.3-14.4-28.9-20.4s-10.8-4.8-20.4-1.2s-20.5,3.6-27.7,7.2c-7.2,3.6-8.4,7.2-9.6,12
		C1232.8,867.2,1229.2,869.6,1229.2,869.6z"/>
	<polygon class="st2" points="414.5,-43.2 412.8,-46.1 415,-46.5 	"/>
	<polygon class="st2" points="397.8,-42.2 396.2,-43.2 396.5,-45.3 398.7,-45.8 398.9,-42.9 	"/>
	<polygon class="st2" points="539.6,-40.8 539.1,-40.9 540.5,-43.5 541,-41.4 	"/>
	<polygon class="st2" points="404.3,-38.9 403.8,-41.1 406.3,-42.4 406.2,-40.6 	"/>
	<polygon class="st2" points="411,-37.8 408.8,-37.7 409.6,-40.2 411,-39.7 	"/>
	<polygon class="st2" points="418.3,-36.5 417.2,-39 419.1,-39.9 419.2,-37 	"/>
	<polygon class="st2" points="350,-38.4 350.7,-36.4 349.5,-35.8 	"/>
	<polygon class="st2" points="332,-34.1 329.8,-35 330.7,-36.5 332.1,-35.9 	"/>
	<polygon class="st2" points="426.1,-27.8 425,-29.8 426.6,-31.7 427,-29.4 	"/>
	<polygon class="st2" points="356.1,-25.9 351.6,-25.8 351.5,-26.4 355.3,-29 357.3,-28.5 	"/>
	<polygon class="st2" points="429.5,-25.3 429,-25.2 429.3,-27.9 430.9,-27.8 430.9,-25.7 	"/>
	<polygon class="st2" points="363.6,-14.9 360.6,-15.3 360.4,-16.4 366.7,-17.5 367.6,-15.9 	"/>
	<polygon class="st2" points="523.8,-11.7 521.5,-13.7 523.6,-14.5 524.8,-13.2 	"/>
	<polygon class="st2" points="383.2,-11.1 385.1,-16.4 387.5,-16.5 387.5,-14.8 	"/>
	<polygon class="st2" points="528.8,-10.7 527.7,-12.3 529.8,-13.1 529.8,-11.2 	"/>
	<polygon class="st2" points="516.7,-7.4 516.6,-8.9 518.4,-10.6 518.8,-8.6 	"/>
	<polygon class="st2" points="520.9,-4.3 518.2,-4.9 518.9,-6.1 521.4,-6.5 	"/>
	<polygon class="st2" points="431.4,-3.5 430.6,-4.8 432.8,-8.5 435.7,-9.3 436.2,-5.7 	"/>
	<polygon class="st2" points="558.6,-2.6 557.1,-5 557.2,-7 558.8,-7.6 560.2,-6.3 	"/>
	<polygon class="st2" points="518.5,17.3 516.6,16.2 517.6,15 519.4,16.5 	"/>
	<polygon class="st2" points="465.9,22.8 463.7,21.5 463.5,20.6 467.5,19.3 467.4,21.1 	"/>
	<polygon class="st2" points="379.8,42.5 376.4,41.7 378.2,39.8 381.4,38.4 383.3,39.9 	"/>
	<polygon class="st2" points="444.9,44.5 442.8,44.5 444.3,41.8 	"/>
	<polygon class="st2" points="467,45.6 465.3,43.8 467.2,43 468.2,44.3 	"/>
	<polygon class="st2" points="476.1,51.1 474.1,49.7 476.5,46.7 477.5,48.3 477.2,50.4 	"/>
	<polygon class="st2" points="395.2,89.3 392.8,88.8 392.7,88.2 394.9,87.1 	"/>
	<polygon class="st2" points="438.2,90.4 437.8,89.1 439.4,86.7 447,84 446.9,86.3 441.5,89.5 	"/>
	<polygon class="st2" points="456.8,91.8 460.4,90.4 461.4,93 459.8,94.4 455.9,93.9 	"/>
	<polygon class="st2" points="444.5,101.6 442.5,101.1 442.2,99.3 444.2,98.9 	"/>
	<polygon class="st2" points="424.3,104 422.5,102.5 423,98 428.6,93.5 433.2,91.4 434.8,91.9 435,94.2 434.2,95 430.7,94.9 
		425.6,99.5 426.1,103.5 	"/>
	<polygon class="st2" points="464.9,111.8 458.9,109.9 457.8,107.5 464.1,107 	"/>
	<polygon class="st2" points="417.5,112.2 417.2,110.1 419.6,109.2 421.5,106.4 423.5,107.6 423.5,110.8 	"/>
	<polygon class="st2" points="391.3,113.2 388.7,112.9 391.1,111.2 	"/>
	<polygon class="st2" points="456.5,117.3 449.9,114.9 450.1,113.1 453.8,113.3 456.6,115.9 	"/>
	<polygon class="st2" points="480.5,118.4 476.4,116.5 476.3,115.1 478.5,114.7 	"/>
	<polygon class="st2" points="443.7,124.3 443.2,122.3 446.2,119.2 448.5,121 446.4,121.2 	"/>
	<polygon class="st2" points="411.8,124.5 409.9,123.3 410.3,121.7 412.8,121.4 413.1,124 	"/>
	<polygon class="st2" points="436.6,129.1 434.7,128.9 434.5,126 436.4,123.1 438.4,124.1 437.8,127.6 	"/>
	<polygon class="st2" points="514.4,132.4 515.7,129.8 516.5,129.6 516.4,131.8 	"/>
	<polygon class="st2" points="389.3,133.4 390.2,130.4 391.7,131 391.9,132.8 	"/>
	<polygon class="st2" points="461.3,142.6 457.2,143 456.6,140.6 459.5,139.4 462,141.2 	"/>
	<polygon class="st2" points="351.9,144.5 351.1,142.8 354.3,141.8 354,143.1 	"/>
	<polygon class="st2" points="280.5,146.7 279.7,144.1 281.9,143.3 281.7,145.7 	"/>
	<polygon class="st2" points="401.9,149.8 398.9,148.6 402.2,144.6 402.9,146.6 	"/>
	<polygon class="st2" points="475.2,148.4 466.3,148.6 463.5,149.9 461.5,147.1 463.8,145.6 469.4,144.4 473.3,141.2 	"/>
	<polygon class="st2" points="277.6,150.8 275.3,148.1 277.9,147.9 	"/>
	<polygon class="st2" points="493,151.1 491.8,147.5 492.8,147.4 495.6,149.6 	"/>
	<polygon class="st2" points="473.7,153.8 469.4,154.4 467.3,153.4 467,151.7 469.3,151.2 473.9,152.9 	"/>
	<polygon class="st2" points="380.9,155.5 379.1,154.9 379.2,152.3 381.7,155 	"/>
	<polygon class="st2" points="461.3,157.3 455.8,158.2 457.8,154.8 461.9,153.7 462.5,153.9 	"/>
	<polygon class="st2" points="337.1,181.8 340,178.1 339.7,181.2 	"/>
	<polygon class="st2" points="376.2,184.8 376.1,181.9 378.6,182 378.7,184.3 	"/>
	<polygon class="st2" points="452.5,311.5 449.9,311.3 450.3,308.6 452.9,310.4 	"/>
	<polygon class="st2" points="465,316.8 466.8,313 467.3,314.2 466.6,316.2 	"/>
	<polygon class="st2" points="488.8,340.3 484.3,341 482.1,339.8 469.4,324 466.9,322.8 466.8,322.1 468.9,320.9 470.9,318.1 
		471.9,318.5 473.2,323.8 483.5,337.1 487.4,338.3 	"/>
	<polygon class="st2" points="491.7,345.2 490.1,345.4 489.5,343.9 490.9,341.2 492.1,343.1 	"/>
	<polygon class="st2" points="485.7,346.1 483.4,345.1 485.8,343.3 	"/>
	<polygon class="st2" points="484.2,358.6 486.9,355.1 489.7,354.8 489,356.4 	"/>
	<polygon class="st2" points="480,361.7 477.6,362.1 477.7,360.2 479.2,358.5 481.7,358.3 481.4,360.1 	"/>
	<polygon class="st2" points="457.7,404.8 456.1,404.3 455.7,401.4 458.2,403.1 	"/>
	<polygon class="st2" points="491.9,407.6 489.9,406.2 490.8,404.2 493.4,403.2 	"/>
	<polygon class="st2" points="488,415.8 488,410.2 490,412.4 	"/>
	<polygon class="st2" points="512.6,431.3 514.6,427.9 514.8,430.5 	"/>
	<polygon class="st2" points="502.4,437.9 496.5,437.5 491.4,431.8 494.1,431.3 498.3,434.1 503.1,434.4 	"/>
	<polygon class="st2" points="517.7,440.4 516,439.4 515.7,437.3 517.7,436.4 519.2,439.8 	"/>
	<polygon class="st2" points="511.8,442.9 511,441.3 512.9,439.3 513.3,442.6 	"/>
	<polygon class="st2" points="523.8,451.7 523.7,449.5 522.3,447.8 522.2,445.9 525.7,448.5 525.1,451.1 	"/>
	<polygon class="st2" points="494.2,456 493.4,456.1 493.2,448.6 497.5,444 499.7,443.7 501.5,446.7 501,448.7 496.8,451.1 	"/>
	<polygon class="st2" points="517,457.3 515.5,457.5 514.6,452.8 515.8,451.5 517.4,453.8 	"/>
	<polygon class="st2" points="513.4,460.8 510.8,461.2 513.1,458 514,459 	"/>
	<polygon class="st2" points="524.9,478.1 523.4,477.6 524.3,473.3 525.6,473.1 	"/>
	<polygon class="st2" points="535.1,483.9 533.8,483.9 529,478.7 529.9,477.8 533.7,480.2 	"/>
	<polygon class="st2" points="526.8,496.2 524.3,495.4 526.8,492.3 528.5,493.6 	"/>
	<polygon class="st2" points="518.8,496.8 516.7,494.3 520.3,493.9 520.7,496 	"/>
	<polygon class="st2" points="509.1,502.5 505.5,501.4 505.1,499.9 506.8,499.1 509.3,501.5 	"/>
	<polygon class="st2" points="564.2,551.8 561.6,551.7 562,550.2 564.4,550.8 	"/>
	<polygon class="st2" points="631.9,637 631.5,633 633.4,633.8 633.7,635.7 	"/>
	<polygon class="st2" points="604.2,645.1 599.6,641.7 599.9,639.4 604.4,643.5 	"/>
	<polygon class="st2" points="621.2,650.3 618.9,650.6 615.2,647.2 614.8,643.6 613,640.8 616.5,639.7 617.7,642.8 620.9,647.3 	"/>
	<polygon class="st2" points="761.9,772.3 766,768.7 769.4,767.5 770.9,769.6 	"/>
	<polygon class="st2" points="1797.4,813.5 1798.5,815.3 1797.7,821.3 1796.3,819.2 1796.3,817.5 1796.3,814.6 	"/>
	<polygon class="st2" points="1803.2,825 1798,810.8 1802.1,816.8 	"/>
	<polygon class="st2" points="1807.1,829.8 1805.6,829.5 1805,822.3 	"/>
	<polygon class="st2" points="1803.3,832.1 1801.6,830.5 1800,822.4 1800.9,822.4 	"/>
	<polygon class="st2" points="1798.1,836.2 1799.3,836.9 1799.7,843.4 1798.5,843 1797.7,838.9 	"/>
	<polygon class="st2" points="1838.8,847.9 1839.4,847.1 1842,846.7 1843,846 1846,843.9 1853.8,835.5 1863.5,827.2 1864.3,827.3 
		1859.7,838.7 1857.8,839.3 1856.6,846.4 	"/>
	<polygon class="st2" points="1824.5,850.9 1823.1,850.9 1822.8,849.9 1835.7,848.1 1829.5,850.4 	"/>
	<polygon class="st2" points="1800,849.6 1805.3,849.2 1807.6,850.2 1808.1,851.7 1801,851 	"/>
	<polygon class="st2" points="1463,1005.9 1464.9,1007.6 1465.8,1012.1 1465.4,1013.4 1464.4,1013 	"/>
	<polygon class="st2" points="1002.9,1039 1004.7,1043.6 1004.8,1045.2 1000.6,1048.8 997.8,1054.3 994.6,1054.6 993.3,1062 
		989.7,1064.9 988.1,1064.5 987.1,1064.3 990.3,1061.8 988.5,1058.3 985.2,1046.9 985,1043.6 983.8,1042.5 983.6,1039.9 
		989.3,1037.5 993.7,1036.1 998.9,1034.9 1002.1,1037.2 1000.3,1036.8 999.2,1037.8 996.3,1037.7 994.5,1038.2 993.9,1039.4 
		994.1,1040.1 1000.6,1038.8 	"/>
	<polygon class="st2" points="915.9,1116.5 916.6,1111.5 920.3,1108.1 924,1116.5 923.3,1121.6 919.6,1126.7 915.9,1123.3 	"/>
	<polygon class="st2" points="800.1,103.6 801.3,105 804.1,101.7 802.7,93 802.4,80.8 798.1,66.4 797.8,65.7 796,55.1 793.4,52.8 
		791.4,47.7 793.2,40.4 797.6,35.3 796.3,34.2 795.7,30.6 801.4,15.7 802.9,5.1 802.6,3 797.7,-31.5 798.6,-38.5 796.6,-54 
		809.5,-52.7 813.5,-37.5 827.6,-2.3 834.9,0.2 840.1,-1.3 840.8,2.9 843.2,2.6 844.1,0.2 839.4,-6.8 836.7,-14.7 832.9,-23.7 
		830.2,-32.7 825.2,-48.9 825.6,-53.3 2062.8,-55.2 2047,649.8 2038.9,652.6 2035.8,652.5 2035.4,652.5 2015.8,665.4 2014.9,668.1 
		2013.7,670.6 1995.9,685.5 1992.3,690 1987.1,694.4 1977.7,706.5 1971.1,713.2 1969.1,711.7 1967.5,713.6 1966.8,716.4 1955.3,726 
		1945.7,730.6 1945.1,732.1 1942.9,736.6 1932.9,741.2 1931.3,740.2 1935.6,736.6 1925.7,736.6 1923,736.6 1924.9,743.1 
		1924.5,743.7 1926.1,743.6 1923.2,747 1921.6,750.4 1921.8,751.8 1929.5,743.6 1930.4,744.7 1928.7,748.8 1925.1,753.5 1919.9,758 
		1918,758.1 1917,760.2 1917.8,762.9 1913.1,767.3 1907.7,774.3 1905.3,776.1 1897.9,787.1 1893.4,793.7 1889.3,795 1875.6,811 
		1868.7,822 1865.8,824.8 1863.2,824.7 1862.2,823 1864.4,817.6 1867.2,816.8 1869,815.2 1870.1,813.5 1872.2,810.5 1884.8,796.6 
		1890.7,792.1 1901.2,781.3 1903.3,776.4 1900.6,776.1 1895,780.1 1894.4,782.8 1891.6,787.8 1891.3,788.3 1885.8,792.5 
		1884.3,794.8 1880.3,798.6 1875,801.6 1866.2,808.5 1859.6,811.7 1854.6,812.9 1853.3,813.3 1849.9,812 1843.8,811.1 1843.7,812.4 
		1847.8,814 1850.5,814.1 1849.3,815.7 1840.1,815.1 1835.2,818.9 1833.8,818.8 1833.2,821.2 1830.4,821.9 1828.7,834.8 
		1827.4,838.7 1825.9,840.1 1824.7,836.9 1824.9,826.6 1822.5,823.2 1820.4,829.6 1821.1,837.5 1820.7,841.9 1818.5,848.8 
		1815.9,839 1815.9,830.4 1813.9,833.2 1812.3,833.4 1810.3,830.7 1808.1,825.6 1807.4,821.1 1804.9,818.5 1802.4,806 1798.1,801.1 
		1796.3,803.6 1796.2,808.6 1794.6,810.4 1795.9,819.3 1797.1,834 1796.1,839.7 1796.6,845 1794.4,849.3 1790.8,853.2 1786,854.4 
		1780.5,853.8 1774.2,855.3 1767,855.8 1761.5,855.6 1757.3,856.1 1741.8,855.1 1728.6,856.1 1727.6,855.9 1717,854.6 1714.2,854.7 
		1706.4,854.9 1699.5,856.1 1696.7,857.9 1696.8,854.7 1697.3,850.7 1696.7,849.9 1696.7,850.8 1695.2,851.4 1691.3,857.8 
		1688.7,859.1 1678.6,861.4 1677.2,860.8 1672.4,862.7 1669.6,862.8 1660.9,865.6 1660.2,866.9 1654.7,868.7 1653.5,866 
		1652.2,866.7 1653,869.7 1640.7,872.9 1631,878.6 1628.5,879.2 1628,877.9 1630.4,870.4 1627.9,872.8 1625.1,875.2 1624.9,877.2 
		1624.7,881.6 1619.6,883.3 1608.7,889.3 1595.5,899 1594.2,897.6 1590.3,900.4 1591,902.9 1590.3,905.5 1587.8,910.6 1583.4,912.2 
		1583.8,913.3 1582.7,914.1 1576.3,924.6 1572.5,933.3 1562.2,944 1558.8,945 1553.5,944.9 1546.3,943.4 1540.7,940.5 1540.8,942 
		1546.1,946 1557.8,950.2 1564.8,945.7 1570.7,937.7 1572.1,939 1566.5,945.7 1562.7,953.1 1560.1,960.3 1554.5,976.2 1546.2,987.6 
		1538.8,995.5 1532.7,1000.6 1520.4,1009.7 1517.9,1011 1501,1019.5 1496.2,1023.7 1494,1022.9 1484.9,1030.9 1476.6,1027.3 
		1473.9,1023.6 1472.2,1019.7 1471.8,1016.1 1472.5,1012.4 1474,1010.3 1474.6,1009.4 1477.7,1000 1475.5,989.2 1472.6,980.1 
		1460.7,963.2 1453.3,959 1448.2,953.6 1443.7,953.2 1446.3,955.7 1449,962 1455.3,964.2 1466.5,980.4 1469,985.7 1470.3,991.9 
		1474.2,998.1 1470.1,1013.2 1469.5,1012.9 1469.3,1008.5 1469.5,1007 1470.3,1002.4 1467.5,988.2 1464.7,983.6 1462.9,981.9 
		1462.4,983.4 1461.9,984.5 1464.2,986.6 1467.1,993 1466.4,999.1 1462.8,996.3 1461,993 1460.2,984.9 1458.3,980.3 1457,973.3 
		1455.5,971.9 1454.4,975.4 1455.1,980.1 1457.1,984.8 1456.4,987 1451.9,985.1 1448.6,984.9 1443.4,987.5 1437.4,980.2 
		1431.9,980.4 1427.1,982.3 1428.9,983.4 1434.3,982.4 1436,983.4 1441.9,990.7 1453.9,991 1457.1,993.9 1456.7,999 1459.2,1001.1 
		1460.7,1003.8 1461.1,1010 1458,1007.6 1452.8,1008.6 1449.4,1004.3 1445.4,1001.2 1442.4,1000.9 1435.7,1002.7 1433,1005.3 
		1435.6,1006 1444,1005.3 1445.3,1006.6 1448.1,1007.4 1450.7,1009.3 1455.4,1015.2 1457.8,1016.6 1459.9,1021.4 1464.3,1027.7 
		1466.1,1026 1462.9,1017.6 1467.3,1019.4 1468.3,1022.1 1470.8,1029.4 1473.5,1031.3 1480.9,1031.3 1480.7,1032.7 1473.7,1034.5 
		1461.9,1034.9 1442.5,1041.9 1435.2,1043.9 1421.4,1047.8 1414.2,1051.2 1405.4,1052.2 1399.9,1055.3 1390,1057.8 1372,1064.3 
		1369,1067.2 1364.2,1068.4 1355,1068.5 1345.1,1067.4 1326.5,1063.5 1315.8,1059 1314.4,1058.8 1309,1058 1305.5,1056.2 
		1288.5,1057.5 1286,1063 1271.4,1061.2 1271.5,1059.8 1277.6,1059.1 1279.1,1057.8 1274.1,1053.9 1270.7,1052.2 1265.7,1049.9 
		1262,1049.6 1261.9,1052.1 1264.5,1055.4 1265.6,1058.2 1267.5,1058.9 1267.9,1060.4 1264.9,1062 1261.5,1061.7 1253.6,1057.5 
		1246.3,1056.2 1243.1,1054.5 1241.9,1051.4 1239.5,1051.8 1229.6,1046 1226.3,1045.7 1217,1037.7 1214.8,1036 1203.2,1031.4 
		1198.6,1033.1 1192.1,1028.8 1182.8,1025 1178.1,1021.8 1167.2,1016.8 1157.5,1011.3 1153.9,1010.8 1151.1,1008.3 1150.1,1008.5 
		1146.9,1009.2 1144.6,1005.7 1140.7,1006.4 1137.9,1004.3 1126,999.6 1122.9,997.6 1114.9,996.9 1096.4,991.4 1088.1,990.9 
		1076.4,991.1 1069,989.6 1064.4,990.2 1058.6,989.2 1058,989.3 1048,991 1044.1,992.7 1042.7,991.3 1041.5,988.2 1042.7,981.5 
		1041.1,981.4 1039.1,988.6 1040,992.5 1026.9,993.6 1017.9,992.2 1014.8,990.3 1008.3,986.5 973.3,956.8 972.2,953.7 975.7,953.9 
		977.2,953.4 977.6,951.8 975,948.7 969.4,947.1 971.4,952.1 970.1,952.8 966.9,948.5 963.6,946.1 959.4,941.3 957,937.7 
		957.9,935.7 959.8,936.1 960.9,934.5 958.7,932.4 957.1,931.7 955.1,937.1 953.3,937 943.9,927.4 940.5,922.7 930,912.7 
		924.7,908.6 921.1,907.1 916.9,901.7 906.2,892.4 890.2,878.5 883,872.8 869,863.7 872,862.2 875.3,863.3 884.1,861.6 886.7,857.6 
		888,855.1 889.1,849.3 891.9,843.3 891.4,841.5 892.8,836.6 897.9,825.1 894.7,826.1 889.8,831.1 889.4,834.7 886.5,834.4 
		883.5,844 878.5,848.9 863.1,856.3 864.7,859.3 863.1,860 845.7,847.7 843.9,845.1 841.9,844.9 837.3,842 830.6,835.7 827.6,835.3 
		825,836.2 822.5,835.2 820.5,832.5 819.9,831.8 804.1,827.4 790.5,819.4 782.4,810.7 774.8,805.9 771.5,804.7 770.1,802.1 
		771.7,794.8 768.6,782.2 765.6,779.8 765.9,777.9 767.2,776.7 767.3,775.3 769.2,773.4 776.9,771.1 781.1,771.4 787.2,776.3 
		789.8,771.2 786.2,769.2 783.7,768.8 782.4,767.4 779.5,767.5 775.4,768.6 770.6,766.7 765.9,767.3 759.8,771.3 756.4,775.1 
		754.6,778.2 752.3,780 751.8,779.7 751,779.7 750.3,779.7 748.5,779.6 747.7,780.3 747.4,780.5 747.1,782 746.4,781.9 746.1,781.8 
		745,782 745,784.3 747.4,788.8 752.2,794.6 757.6,797.7 766.2,801.3 769.4,804.4 769.2,805.4 768.6,805.2 749.8,799.2 747.8,799.6 
		731.9,806.8 730,810.7 733.7,818.6 732.9,820.3 729.5,821.4 723.6,821.8 719.4,821.6 710.1,821.2 688.1,827.7 681,828 677.5,831 
		663,835.6 656.2,832.3 655.6,831.5 649.2,823.8 641,811.4 632.1,811.2 626.6,809.4 624.9,811.3 622.8,816.9 620.5,818.7 
		604.3,823.9 600.9,826.4 595.5,826.8 590.8,826.2 586.1,827.7 581.6,826.2 579.3,827.7 568.6,829.6 567.8,829.8 559.6,829.8 
		552.7,827.2 548.5,827.5 544.4,828.7 541.9,831.2 540.4,830.9 536.7,830.1 522.3,826.8 518.6,823.7 511.9,824.3 508.8,822.2 
		507.8,820.4 501.1,816.5 498.8,817 488.9,825.6 486.3,825.9 485.8,829.5 486.3,832.1 485,834 480.9,832.1 480.2,830.1 481.5,828 
		480.2,827.2 472.6,830.8 470,833.5 463.1,831.3 455,840.7 448.2,840.4 439.8,838.7 436.3,836.3 433.1,835.6 431.9,835.4 427.2,837 
		418.5,844.5 415.3,845.7 412.3,846.9 411.2,842.4 409.1,842.4 405.1,836.5 404.4,834.1 405,832.5 407.5,830.7 409.7,826.7 
		412,824.7 412.3,820.3 413.8,816 411.8,814.4 410,811.4 408.6,808.9 406,806.6 405.5,807.5 404.3,805.5 403.6,800.7 405.6,794.3 
		408.6,794 413.2,783.7 413.6,778.7 415.4,775.7 415.4,772 427.8,769.3 428.7,767.8 427.4,764.3 425.2,764.9 421.4,766.1 
		415.8,764.2 413.5,764.3 411.6,762.3 409,761.8 405.3,757.3 404.3,754.1 401.2,754.4 399.5,751.1 401.6,749.3 400.5,747.9 
		400.8,746.8 412.7,736.6 414.2,727.4 413,718.7 414.1,716.9 412.8,712 414.2,708 413.5,704.4 414.8,697.5 415.7,696.1 418.5,691.3 
		428.4,694.9 430.2,698.4 429.7,698.5 433,702.1 436.4,703.6 440.3,710.5 443.4,712.6 444.6,715 447.1,715.9 450.9,720.9 
		454.7,736.6 450.9,739.1 452.3,745.1 451.8,747.9 452.4,750.1 457,746 458.9,745.2 471.4,750.1 481,751 486.8,749.6 487.1,748.6 
		487.6,747.1 487.3,741.7 487.9,739 491.8,736.6 496,731.5 500.5,730 502.2,731.5 505.6,731.2 514.2,724.5 519.4,720.4 525.6,719.9 
		532.8,726.5 538.9,728.4 539.9,726.5 544.2,725.8 551,719.1 552.3,714.7 558.4,712.7 561.5,710 563.4,711 569.1,710.1 569.9,710 
		571.7,713.4 573.9,710.7 577.9,709.8 583.4,700.7 586.6,703.6 589.7,702.1 595.4,701.7 592.1,697.5 591.4,697.7 587.9,694.4 
		582.3,692.4 577.6,687.1 579.7,686 578.3,683.8 575.2,684.4 572.8,685.7 571.4,685.6 572,683.9 573.7,683.2 573.8,680.2 
		575.3,678.6 575.1,676.3 583.5,671.4 584.2,672.7 581.3,676.1 584.1,676.7 586.2,674.4 589.5,672.9 591.4,677 591.1,679.8 
		587.5,676.9 586.9,678.7 583.7,679.8 580.6,680.9 581.2,682.6 585.2,684.2 592.1,682.7 593.4,684.8 598.6,683.8 598.2,680.6 
		601.7,680.9 603.6,680 603.3,678.3 597.7,676.7 596.7,675.2 597.5,673.4 603,673.8 604.7,672.3 604.6,671.6 595.7,668.7 593,666.2 
		592,664.5 588.4,658.7 583.2,654.9 578.5,653.1 574.5,654.2 574.6,651.4 577.3,650 578.5,647.7 582.8,649.2 586.6,653.3 590,654.1 
		592.8,652.6 595.7,648.4 596.9,649.3 595.7,653 597.9,655.7 601.7,653.6 602.4,655.9 602.6,656.4 607.5,655.6 608.3,651.5 
		611.2,650.7 615.1,654.8 617.5,654.7 619.7,660.1 619.4,665.5 620.6,667 622.3,664.6 627.5,665.6 630.6,665.2 630.5,664.5 
		623.6,660.9 624.2,657.8 626.7,657.2 626.9,654.9 624.7,653.6 624.6,652.6 627.6,651.9 629.5,651.5 629.7,651 630.2,649.8 
		623.1,645.1 624.2,641 628.5,639.5 633.4,643.8 633.9,646.7 632.5,649.5 633.4,650.2 638.8,649.2 642,646.8 640.6,644.7 
		641.1,643.2 645.5,642.4 648.5,640.8 651.2,641.1 651.1,640.5 656,639.5 656.1,638.2 651.6,636.4 648.3,635.1 640.4,639.1 
		637.9,638.6 636.3,640.2 635,638.9 638.6,634.2 636.2,630.3 637,628.9 639.7,627.8 642.3,629.1 645.3,625.7 645.4,626.4 
		648.8,626.8 651.8,623.9 648.2,621.3 637,624.9 634.8,623.8 628.9,620.8 623.2,622.8 621.8,621.5 624.7,619.4 625.7,613.9 
		624.2,607.1 619.1,605.4 613,606.4 612.7,609.1 608.6,610 606.6,609.6 605.5,611.2 602.8,609.2 604.2,607.3 607.9,606.2 
		605.2,603.8 606.2,602.5 606.6,602.5 608.9,602.2 610.6,598.4 610.4,592.1 611.5,591.2 622.1,576.4 626.2,574 644.5,548.6 
		646.3,548.4 650.7,551.8 655.6,550.7 657.3,551.7 657.9,552.1 661.6,551.1 665,552.2 668.1,551.6 669.2,549.4 667.4,547.8 
		659.5,548 657.9,543.1 663.4,538.2 669.2,535.6 672.2,531.5 673.4,531.3 675.7,530.8 677.8,532.1 679.7,531.2 679.7,527.6 
		683.8,528.2 685.4,531.1 684.1,534.9 686.7,538.1 691.5,538.2 693.6,535.8 696.3,535.1 696.3,535.6 701.4,533.4 702.3,538.7 
		707.8,542.1 716.5,541.2 719,536.7 721.5,531.8 725.7,528.4 731.6,527.1 733.7,526.1 734.9,525.5 734.8,524.9 728.2,523.5 
		724,524.1 718.9,527.3 717.2,531 713.1,533.8 707.8,533.1 706.6,530.9 714.9,527.9 717,525.8 716.1,523 711.1,519.3 702.3,519.1 
		701,519 693.7,521.2 689.5,520.3 686.6,520.9 677.2,517.8 673.7,514.1 661.2,516.4 655,522.1 650.9,523 650.2,524.4 641.9,531.5 
		639,536.6 638.7,536.7 631.8,539.2 627.3,548.4 623.6,551.1 620.5,555.3 612.6,559.5 604.2,567.7 599.8,568.4 596.9,571 
		594.7,569.8 585,570.8 581.1,571.3 572.8,571.1 568.8,566.9 565.2,564.8 561.7,564.4 557.9,566.8 556.5,564 560.1,562.2 
		562.4,557.2 565,556.6 566.5,553.1 569.7,552.5 574.9,541.8 576.5,542.3 577.5,544.5 579.4,541.4 583.4,537.2 583.6,533.4 
		587.3,534.2 592.8,532.4 595,534.5 596.9,534.2 598.2,530.5 600,530.1 602.8,533.1 606.5,532.2 609.6,530.8 609,527.4 609.8,525.4 
		614.1,524.2 613.4,523.2 611.9,521.1 605.2,524.6 600.7,519 598,519.5 598.1,520 594.6,519 591.2,522.1 588.9,521.5 585.7,522 
		583.8,524 585,529.8 583.4,530 576.4,524.1 574.9,521.9 571.5,516.6 575.2,506.7 577.6,505 576.3,497.8 577.1,488.7 579.7,487.5 
		579.4,496.6 583.3,493.1 583.5,482.3 586.2,479 585.2,475.9 586.6,470.3 592.2,457.4 593.3,457.2 595.1,459.3 596.5,459.3 
		598.6,456.3 603.5,454.6 609.2,447.8 613.2,449.5 622,446.3 627,443.6 631.1,445 634.5,444.2 635.8,444.9 637.5,443.9 637,441.4 
		635.5,441.1 632.1,437.7 631.3,438.3 624.1,438.6 623.5,437.1 629,435.3 632.3,432 635.5,423.5 638.9,419.9 637.1,417.8 631,419 
		625.9,418.8 623.4,421.5 617.4,424.9 614.1,425.8 613.6,427 616.3,430.8 612.9,431.9 609.7,429.9 607.8,432.1 606.2,436 604.5,437 
		600.7,444.4 598.3,445.7 597.9,443.5 600.9,438.8 602.4,436.5 600.2,433.9 596.9,436.7 593.6,437.1 587.2,448.1 580.3,448 
		574.7,451.8 572.4,443.2 576.1,437 579.1,429 579,425 577.5,425.2 573.8,429.5 574.1,432.6 574.2,433.4 569.6,438.3 567.9,443.5 
		567.1,448.4 568.6,453.5 565,455.6 561.1,460.3 562.3,464.2 561.3,478.7 559.4,480.1 556.3,479.9 555.1,479.6 555.5,476.3 
		553,477.1 550.2,479.8 543.3,486.2 541.5,485.8 543.8,481.8 547.1,479.3 547.4,477.1 541.6,480.8 539.2,480.7 536.8,479 
		535.7,476.9 535,477 532.6,474.1 532.7,466.7 530,466.4 530.4,462.5 529.5,462.3 523.7,470.9 522.7,471.3 522.7,470.4 522.5,467.3 
		531,449.5 532.3,445.2 526.6,445 525.8,440.5 526.5,439.3 528.8,439 529.1,437.2 527.4,435.2 522.7,437.6 522.5,435.5 526.1,431.5 
		522.7,429.3 522.3,427.2 524.7,424 525,423.6 525.8,420.4 524.2,420.5 518.8,427 516.2,425.2 512.1,427.5 508.8,432.3 507.2,432.5 
		504.4,430.9 502.1,432.3 496.9,422.8 498.4,418.7 495.3,417.4 496.9,413.9 496.8,406 500.8,402.5 499.9,400.8 499.8,400.6 
		494.1,401.9 492.3,397.2 489.1,391.9 489.6,389.1 474.5,378.9 474.2,373.8 476.7,374.4 479,379 482.2,381.7 491.8,387 491.7,386.4 
		493.7,386 503.4,383.9 503.7,382.5 501.2,380.2 495.6,383.2 495,381.9 500.1,369.8 501.5,368.5 508.8,368.1 506,365 499.8,362.9 
		501.9,358.7 504.5,353.9 483.3,371.8 481.8,371.3 482.2,370 482.9,366.8 481.1,363.4 487.3,360.4 491.4,357.2 495.5,347.8 
		498.8,347.2 500.2,340.2 500.5,333.7 502.5,332.1 507.5,330.1 508,327 506.9,323.7 501.1,321.8 496.6,318.5 494.9,318.3 493.1,320 
		490.6,320.4 489.1,318.9 485,319.5 480.9,323 476.1,320.8 476,320.2 480.4,318.5 479.1,314.1 482.6,312.4 482.9,309 478.6,310.2 
		474.7,311.3 476,308.9 481.6,304.6 484.5,295.9 483.9,293.7 488.5,290.5 487.5,289.5 484.2,289.7 480.5,293.5 479.9,298.7 
		477.5,301.8 472.5,301.2 472.3,299.5 472.7,298 474.4,297.3 475.8,296.6 475.9,295 475.1,293.5 474.5,293.6 473.6,295 472.7,297 
		471.8,297.3 469.4,297.3 467.8,297 466.9,298.9 466.8,301.9 465,303.3 458.8,300.6 456.7,298 453.5,299.8 441.3,310.9 441.4,311.7 
		447.9,313.8 448,314.5 444.6,315.7 434.7,313.8 428,318.4 426.3,318.4 425.4,318.4 417.2,312.9 418.9,311.5 427.9,314.5 430,313.9 
		431.3,310.1 427.5,307.9 425.4,309.5 422.3,307.5 423.9,305 423.3,300.4 420.1,299.8 417.6,297.8 414.9,297.6 413.3,297.4 
		403.3,300.6 399.8,299.7 396.4,300.8 396.6,302.3 408.4,310.1 413.3,314.3 413,315.3 405.8,311.5 398.4,306.3 391.6,304.5 
		388.8,304.1 384.3,303.6 380.2,299.9 361.8,304 356.6,304 351.5,300.3 341.3,299.7 341,300.4 335.1,302.5 328.6,300.3 321.4,300.8 
		311,298.7 302.8,295.1 297.4,294.3 280.6,287.2 275.2,286.8 262.7,285.9 254.8,287.7 250.6,291 250.8,297.2 249.5,300.5 
		244.9,303.3 238.3,305.4 235.3,305.1 229.7,301 223.1,299.2 218.4,299.5 206,300.3 205.8,299.3 209.6,297.5 221,296.5 218,294.4 
		212.9,293.4 209.1,294.7 199.9,300.1 191.6,310.2 191,312.9 191.5,313.8 194.3,319 192.7,323 188.6,328.5 189.3,328.4 190.6,332.2 
		182.9,334.4 175.5,331.4 170.4,333.5 164.2,336.1 157.9,335.9 151.1,340.9 146.3,336.4 143.5,335.9 141.2,333.5 137.4,332.6 
		136,330.8 132.7,330.8 129.6,328 123.6,326.9 123.4,322.4 119.6,312.8 119.4,312.4 116.3,308.1 109.1,291.6 109.9,286.8 
		107.2,286.5 106.4,289.7 104.2,290.1 102.6,288.6 99.8,279.1 94.7,269.4 92.3,254.9 94.6,253.6 99,256.2 103.1,253.9 106.1,254 
		109.4,249.5 111.8,249.1 114.1,244.3 118.8,241.9 121.7,236.7 124,236.1 127,237.2 134.2,231.9 137.2,231.7 140.5,232.9 
		144.1,229.6 146.6,232.1 147.7,233.1 145.1,233.8 145.1,235.6 150.9,241.2 153.2,241.6 148.7,235.2 150.5,234.7 157.7,242.5 
		170.1,245.5 174.6,248.9 181.2,250.5 183.1,250.3 187.3,249.9 190.2,251 195.2,247 200.4,237.5 203.2,237.4 206.9,239.1 
		212.6,237.7 217.1,233.9 221.9,222.4 225,218.8 228.3,218.3 234,219.8 234.7,220 239.9,219.9 246.1,217.6 248.3,217.8 248.9,218.9 
		247,221.6 254.5,222.4 250.4,211.4 254.1,211.8 257.7,209.3 258.1,207.8 263.4,210.6 264.8,216.8 261.4,222.6 261.4,224.7 
		261.4,225.6 263.2,227.2 266,226.7 267.7,225.1 265.6,222.3 267.5,219.9 270.2,219.5 272.4,220.8 273.9,225.5 270.5,228.5 
		270.5,231.8 274.3,234.2 279.7,231 281.5,231.1 284.4,233.5 287.5,233.2 288.5,233.1 290.9,230.2 293.3,217.1 290.5,212 
		290.6,206.3 287.4,197.4 288.4,192.5 290.4,189.7 293.4,185.5 297.8,181.4 304.4,183.3 307.6,184.9 309.5,186 322.1,188 
		322.4,189.1 321.8,189.7 315,197 312.1,204.1 313.6,209.3 309.5,209.6 308.1,214.9 304.2,219.9 307.7,225 309.6,223.7 312.4,227.8 
		313.4,229.3 313.9,233.9 316.7,234 319,238.1 320.4,237.4 320.9,230.9 318.1,213 318.6,211.6 321,212.6 321.8,210.2 327.1,211.2 
		331.5,214.3 335.9,214.2 338.7,218 338.3,220.3 336.8,229.1 337.8,230.7 339.3,229.9 341.4,220.9 340.5,213.8 338.3,211.3 
		329.9,210 328.6,208.4 331.3,196 335.6,190.8 336.9,189.7 340.8,186.5 342.6,185 350.1,185.2 355.2,188.5 356,189.7 357.3,191.7 
		358.1,198.2 362.2,197.8 364.2,194.1 367.3,193.4 371.7,189.7 373.9,187.9 377.1,187.6 379.7,189.7 379.8,189.7 384.5,184.8 
		393.1,180.2 393.4,180 395.6,176.9 375.6,175.3 374.9,173.6 376.2,171.5 384.8,168.3 386,170.8 388.6,170.1 391.1,161.8 
		400.2,157.6 402.9,152.3 404.5,151.2 407.6,148.9 410.1,149.9 410.6,152.4 407.7,155.6 408.1,157.8 412.9,154.5 415.2,157.8 
		418.6,160 415.1,160.8 413.7,165.4 418.1,165.1 418.2,165.7 415.1,169.2 414.1,173 410,174.4 406.6,177.3 404.1,178.1 403.4,179.5 
		405.5,180.3 408.7,179.9 408.8,179.9 410.8,177.7 414,178 416.9,174.3 419.1,175.5 417.8,180.3 416.5,181.6 420.3,183.8 
		420.3,187.9 420.9,189.7 421.4,191.5 426.5,195.4 430.4,194.7 437,199.6 442.2,207.9 443.5,208.1 441.9,202.8 441.1,201.5 
		434.1,191.3 433.5,189.7 432.8,187.9 435.3,182.9 434.6,179.2 438.2,175.7 439.5,173 444.3,175.6 445.9,175.4 444.7,169.4 
		452.7,163.3 458.9,165.1 462.3,164.9 472.1,167.2 479.8,164.9 485.4,161.4 493.6,161.3 495,159.3 496.4,159.6 502.2,157.3 
		503.8,159.7 508.3,161.2 510.7,165.5 516.3,164.7 528.6,168.6 529.1,173.2 530,173.3 536.8,173.8 538.5,175.6 539.6,174.4 
		543.7,173.7 547,177.6 548.9,177.4 551.8,170.4 556.4,173.1 557.7,173.1 559.7,170.9 571.9,172.1 580.7,176.4 589.3,175.4 
		593.8,178.7 597.6,178 605,176.6 624.2,175.7 626.2,178.8 628,177 630.8,174.8 631,171.5 632.7,168.4 630.6,158.5 625.2,156.4 
		622.7,155.4 621.5,151.2 623.9,146.7 632,140.8 634.3,137.1 633.3,129.4 637.1,126.8 641.5,118.3 644.1,109.3 646.1,107.1 
		649.3,96.6 648.6,96.7 647.5,92.9 646,83.1 642.7,78.4 642,79.1 636.6,77.6 632.3,78 625.8,78.7 624,80.3 623.3,86.1 620.6,89.1 
		621.7,94.8 620.9,98.6 618.7,97.5 614.2,104.1 607.7,108.9 598.4,118.6 582.3,129.5 577.4,130.9 563.6,131.8 560.8,133.1 
		557.9,132.1 554.2,132.3 552,130.7 550.6,129.7 549.8,126.1 542.5,125.3 538.3,125.9 535.7,124 529.8,124.9 527.3,123.5 
		522.9,125.1 519.6,123.5 516.1,120 509.1,116.6 507,116.5 503.1,113.2 493.7,108.8 491.6,104.9 487.9,97.9 484.3,98.6 483.5,103.5 
		478.8,103.5 474.8,104.6 473.3,108.1 471.2,106.4 469.2,106.3 466.5,103.7 458.4,102.9 451.4,103.7 447.4,100.4 448.8,98 
		447.6,94.8 450.5,94.4 452.9,95.9 456.4,98.3 460.1,98.1 462.8,96.1 466.8,89.7 471.6,91.6 474.2,89.3 471.9,87.4 459,84.1 
		456.6,84.9 452,88.8 450.3,88 452.7,83.7 458.3,78.3 461.2,66.6 465.3,63.4 467,59.4 469.3,58.6 471.5,59.7 475.1,58.2 478,57 
		481.8,53.8 481.8,49.1 480.7,47.1 484.8,44.6 488.1,39.3 490.3,39.9 490.6,42.6 493,43.1 495.9,39.2 497.4,33.9 496.2,30.3 
		497.2,28.4 501.2,27 506.2,26.4 516.3,21.6 518.7,19.4 523.7,19.3 525.2,19.2 538.2,13.4 545.4,9.5 553.4,0.8 558.6,-2.6 
		569.9,-11.2 571.4,-14.6 574.2,-14.8 577.9,-18.9 578,-18.4 584.3,-18.9 587.3,-21.1 589.8,-28.1 589.1,-28 588.3,-30.2 
		590.4,-29.9 595.7,-20.2 598.6,-21.8 593.7,-30.5 599.2,-33.3 602.4,-39 609.9,-38.1 610,-37.4 632,-42.6 634.5,-41.5 635.6,-42.2 
		643.3,-46.9 650.3,-54.6 633.3,-51 629.4,-49.8 625.8,-50.7 621.6,-54 598.4,-54.5 592.9,-54 589.9,-50.6 588.7,-51.9 538.8,-51.9 
		538.4,-52.5 532.5,-45.2 530,-44.8 528.6,-46.1 526,-44.9 523.1,-48.6 522.2,-49.7 518.3,-49.3 517,-51.7 513.9,-50 706.8,-54.1 
		707.7,-53.2 714.5,-54.7 761.6,-54.6 766.6,-49.6 768.5,-46.9 772.7,-47.7 773.3,-44 770.7,-36.4 775,-30 776.1,-23 774.4,-16.6 
		776.9,-1.8 774.5,11.2 773.2,18 774.3,26.9 778.2,30.2 778.5,35.7 781.4,39.5 780.7,42.3 783,46.4 787.6,54.5 787.9,60.7 
		796.6,78.6 797,90.8 797.7,101 	"/>
</g>
<g class="st3">
	<text transform="matrix(1 0 0 1 593.0767 771.5918)" class="st4 st5 st6">Kleifarvatn</text>
	<text transform="matrix(1 0 0 1 506.8916 793.6055)" class="st4 st5 st6">Seltn Geothermal Area</text>
	<circle class="st7" cx="588.4" cy="773.2" r="3"/>
	<circle class="st7" cx="571.3" cy="790" r="3"/>
</g>
<g id="camera-path" class="st3">
	<path class="st8" d="M616,641c-104.2-186.2-150.7-354.2-96-400c62.4-52.2,244.2,64.1,369,144c98.3,62.9,148,95.6,174,158
		c45.7,109.7,5.5,258.1-90,334c-122.1,97.1-334.7,75.7-470-80c65.6,16.7,122.2-10.3,135-49c8.9-26.8-5-53.8-11-64"/>
</g>
<g id="points" class="st3">
	<circle id="Eyjafjallajkull" class="st9" cx="529" cy="262.4" r="5.8"/>
	<circle id="Gullfoss" class="st9" cx="873.6" cy="461.2" r="5.8"/>
	<circle id="Hverageri" class="st9" cx="1008.7" cy="538.6" r="5.8"/>
	<circle id="Krsuvkurbjarg" class="st9" cx="935.3" cy="804.4" r="5.8"/>
	<circle id="Reykjanesta" class="st9" cx="489.7" cy="816" r="5.8"/>
	<circle id="Reykjavk" class="st9" cx="630" cy="663.6" r="5.8"/>
</g>
<g id="trail-path" class="st3">
	<path class="st10" d="M644,657.8c72.7-50.5,120.8-65.1,152-68.5c6.3-0.7,20.1-1.9,22.6-9.1c7.2-20.9-87.3-69.2-87.3-69.2
		l-22.7-100.8l-138-26.5L532,262.4l107.3-32L770.9,315l57.8,58.8l48,87.5l132.1,77.4V569l-22.1,94.6l8,88.7l-59.3,52.1l-44.7,5.8
		l-56-19.2l-26-31.3l-70.7,4L658.7,787L584,798.6l-94.3,11.6l-10-37.9l32.5-22.6l43.2-14.7l49.1-26c8.7-14.6,17.5-29.2,26.2-43.8
		C579.1,614.5,527.6,563.7,476,513"/>
</g>
</svg>
